{"title":"Star Wars Episode 1 The Fantom Menace 1999 MULTI UHD 4K Blu-Ray","uid":15833982,"size":48054565157,"categoryP":"video","categoryS":"hd___movies","magnet":"?xt=urn:btih:0889387ffd39211bca46e4f9e5167700ca509c74&amp;dn=Star+Wars+Episode+1+The+Fantom+Menace+1999+MULTI+UHD+4K+Blu-Ray&amp;tr=udp%3A%2F%2Ftracker.leechers-paradise.org%3A6969&amp;tr=udp%3A%2F%2Fzer0day.ch%3A1337&amp;tr=udp%3A%2F%2Fopen.demonii.com%3A1337&amp;tr=udp%3A%2F%2Ftracker.coppersurfer.tk%3A6969&amp;tr=udp%3A%2F%2Fexodus.desync.com%3A6969","seeders":13,"leechers":92,"uploader":"SaM","files":3,"time":1473950237,"description":"UHD 4K 2160p / Blu-ray 4K Rip / x264\r\nEnglish DTS-HDMA 6.1\r\nFrench DTS 5.1\r\nHindi AC3\r\n\r\nEnglish / French / Spanish / Portuguese\r\n/ Dutch / Finnish / Norvegian/ Swedish\r\n\r\n+ Foreign &amp; SDH Subs\r\n\r\n\r\n1080p v/s UHD 4K Screenshots\r\n\r\n1080p\r\n \nhttp://extraimago.com/image/wd74\r\n\r\n4K\r\n \nhttp://extraimago.com/image/wd7p\r\n\r\nSCREENSHOTS:\r\n \nhttp://extraimago.com/image/wd7e \nhttp://extraimago.com/image/wd7Z \nhttp://extraimago.com/image/wd7K \nhttp://extraimago.com/image/wd7J \nhttp://extraimago.com/image/wd70 \nhttp://extraimago.com/image/wd7z \nhttp://extraimago.com/image/wd7U \nhttp://extraimago.com/image/wd7M \nhttp://extraimago.com/image/wd79 \nhttp://extraimago.com/image/wd73 \nhttp://extraimago.com/image/wd7b\r\n\r\nSource : UHD 4K Blu-Ray ripped with HDFury by DRUIDE\r\nFormat : Matroska\r\nFormat version : Version 4 / Version 2\r\nFile size : 44.4 GiB\r\nDuration : 2 h 16 min\r\nOverall bit rate : 46.7 Mb/s\r\nMovie name : Star Wars Episode I - The phantom Menace UHD 4K Blu-Ray\r\nEncoded date : UTC 2016-09-15 10:10:40\r\n\r\nVideo\r\n\r\nFormat : AVC\r\nFormat/Info : Advanced Video Codec\r\nCodec ID : V_MPEG4/ISO/AVC\r\nDuration : 2 h 16 min\r\nBit rate : 40.0 Mb/s\r\nWidth : 3 840 pixels\r\nHeight : 2 160 pixels\r\nDisplay aspect ratio : 16:9\r\nFrame rate mode : Constant\r\nFrame rate : 23.976 (24000/1001) FPS\r\n\r\n\r\nAudio #1\r\nFormat : DTS\r\nFormat/Info : Digital Theater Systems\r\nFormat profile : MA / ES Discrete / Core\r\nCodec ID : A_DTS\r\nBit rate mode : Variable / Constant / Constant\r\nBit rate : 4 815 kb/s / 1 509 kb/s / 1 509 kb/s\r\nChannel(s) : 7 channels / 7 channels / 6 channels\r\nSampling rate : 48.0 kHz\r\nFrame rate : 93.750 FPS (512 spf)\r\nBit depth : 24 bits\r\nStream size : 4.58 GiB (10%)\r\nLanguage : English\r\n\r\nAudio #2\r\nFormat : DTS\r\nFormat/Info : Digital Theater Systems\r\nCodec ID : A_DTS\r\nDuration : 2 h 16 min\r\nBit rate : 768 kb/s\r\nChannel(s) : 6 channels\r\nSampling rate : 48.0 kHz\r\nFrame rate : 93.750 FPS (512 spf)\r\nBit depth : 24 bits\r\nLanguage : French\r\n\r\nAudio #3\r\nFormat : AC-3\r\nFormat/Info : Audio Coding 3\r\nCodec ID : A_AC3\r\nDuration : 2 h 16 min\r\nBit rate mode : Constant\r\nBit rate : 192 kb/s\r\nChannel(s) : 2 channels\r\nChannel positions : Front: L R\r\nSampling rate : 48.0 kHz\r\nFrame rate : 31.250 FPS (1536 spf)\r\nCompression mode : Lossy\r\nStream size : 187 MiB (0%)\r\nLanguage : Hindi\r\n\r\n\r\nChapters = YES &amp; Named\r\nSample : Included","torrent":{"xt":"urn:btih:0889387ffd39211bca46e4f9e5167700ca509c74","amp;dn":"Star+Wars+Episode+1+The+Fantom+Menace+1999+MULTI+UHD+4K+Blu-Ray","amp;tr":["udp%3A%2F%2Ftracker.leechers-paradise.org%3A6969","udp%3A%2F%2Fzer0day.ch%3A1337","udp%3A%2F%2Fopen.demonii.com%3A1337","udp%3A%2F%2Ftracker.coppersurfer.tk%3A6969","udp%3A%2F%2Fexodus.desync.com%3A6969"],"infoHash":"0889387ffd39211bca46e4f9e5167700ca509c74","infoHashBuffer":{"type":"Buffer","data":[8,137,56,127,253,57,33,27,202,70,228,249,229,22,119,0,202,80,156,116]},"announce":[],"urlList":[]}}